<svg xmlns="http://www.w3.org/2000/svg" viewBox="0 0 256 256" role="img" aria-labelledby="title desc">
  <title id="title">Independent AI software engineering</title><desc id="desc">A neon green AI monogram over a dark technical grid.</desc>
  <defs><linearGradient id="bg" x2="1" y2="1"><stop stop-color="#101510"/><stop offset="1" stop-color="#16251b"/></linearGradient><linearGradient id="g" x2="1" y2="1"><stop stop-color="#53e076"/><stop offset="1" stop-color="#d7ff6f"/></linearGradient><pattern id="grid" width="24" height="24" patternUnits="userSpaceOnUse"><path d="M24 0H0v24" fill="none" stroke="#53e076" stroke-opacity=".08"/></pattern></defs>
  <rect width="256" height="256" rx="38" fill="url(#bg)"/><rect width="256" height="256" rx="38" fill="url(#grid)"/><circle cx="128" cy="128" r="79" fill="none" stroke="#53e076" stroke-opacity=".28" stroke-width="2"/><circle cx="128" cy="128" r="62" fill="#0f140f" stroke="url(#g)" stroke-width="4"/><path d="M82 159l32-70h27l33 70h-26l-6-15h-32l-6 15H82zm36-35h17l-8-22-9 22z" fill="url(#g)"/><path d="M181 93v66" stroke="#f0fff2" stroke-width="9" stroke-linecap="round"/><g fill="#53e076"><circle cx="35" cy="78" r="5"/><circle cx="221" cy="63" r="4"/><circle cx="214" cy="198" r="6"/></g><g stroke="#53e076" stroke-opacity=".55" stroke-width="2"><path d="M35 78h35l18 18"/><path d="M221 63h-31l-18 19"/><path d="M214 198h-29l-17-16"/></g>
</svg>
