<svg xmlns="http://www.w3.org/2000/svg" viewBox="0 0 1200 675" role="img" aria-labelledby="title desc">
  <title id="title">Shadow Routine</title><desc id="desc">A purple mobile routine dashboard with daily tasks, a progress ring, and habit cards.</desc>
  <defs><linearGradient id="bg" x2="1" y2="1"><stop stop-color="#100b19"/><stop offset="1" stop-color="#241135"/></linearGradient><linearGradient id="g" x2="1" y2="1"><stop stop-color="#b98cff"/><stop offset="1" stop-color="#ff8ecd"/></linearGradient><filter id="glow"><feGaussianBlur stdDeviation="18"/></filter></defs>
  <rect width="1200" height="675" fill="url(#bg)"/><circle cx="260" cy="80" r="210" fill="#ad73ff" opacity=".12" filter="url(#glow)"/><circle cx="1000" cy="590" r="240" fill="#ff72c6" opacity=".09" filter="url(#glow)"/><text x="86" y="95" fill="#bd91ff" font-family="Arial" font-size="18" font-weight="700" letter-spacing="4">SHADOW ROUTINE</text><text x="86" y="161" fill="#fff7ff" font-family="Arial" font-size="50" font-weight="800">Build days that build you.</text><text x="86" y="202" fill="#baaebe" font-family="Arial" font-size="19">Plan routines, track habits, and keep your momentum visible.</text>
  <g transform="translate(735 42)"><rect width="355" height="591" rx="47" fill="#0c0910" stroke="#d2a5ff" stroke-opacity=".45" stroke-width="3"/><rect x="22" y="24" width="311" height="543" rx="32" fill="#17101f"/><rect x="137" y="10" width="82" height="9" rx="5" fill="#33273d"/><text x="49" y="78" fill="#aa99b1" font-family="Arial" font-size="15">FRIDAY, 4 SEPTEMBER</text><text x="49" y="118" fill="#fff7ff" font-family="Arial" font-size="29" font-weight="700">Today’s rhythm</text><circle cx="262" cy="158" r="53" fill="none" stroke="#34283c" stroke-width="12"/><path d="M262 105a53 53 0 1 1-46 79" fill="none" stroke="url(#g)" stroke-width="12" stroke-linecap="round"/><text x="262" y="166" text-anchor="middle" fill="#fff" font-family="Arial" font-size="26" font-weight="800">72%</text><g font-family="Arial"><rect x="45" y="242" width="265" height="70" rx="16" fill="#21172b"/><circle cx="75" cy="277" r="12" fill="#b98cff"/><path d="M69 277l4 4 8-10" fill="none" stroke="#120b19" stroke-width="3"/><text x="101" y="274" fill="#fff" font-size="17" font-weight="700">Morning reset</text><text x="101" y="295" fill="#9f91a6" font-size="13">7:30 AM · 4 tasks</text><rect x="45" y="328" width="265" height="70" rx="16" fill="#21172b"/><circle cx="75" cy="363" r="12" fill="#ff8ecd"/><text x="101" y="360" fill="#fff" font-size="17" font-weight="700">Deep work</text><text x="101" y="381" fill="#9f91a6" font-size="13">10:00 AM · 90 minutes</text><rect x="45" y="414" width="265" height="70" rx="16" fill="#21172b"/><circle cx="75" cy="449" r="12" fill="#7de5c3"/><text x="101" y="446" fill="#fff" font-size="17" font-weight="700">Evening wind-down</text><text x="101" y="467" fill="#9f91a6" font-size="13">9:30 PM · 3 tasks</text></g></g>
  <g font-family="Arial"><rect x="86" y="276" width="555" height="100" rx="22" fill="#1d1427" stroke="#b98cff" stroke-opacity=".2"/><text x="120" y="314" fill="#a896af" font-size="15">CURRENT STREAK</text><text x="120" y="354" fill="#fff" font-size="34" font-weight="800">18 focused days</text><rect x="86" y="397" width="260" height="126" rx="22" fill="#1d1427" stroke="#ffffff" stroke-opacity=".08"/><text x="116" y="436" fill="#a896af" font-size="15">HABITS TODAY</text><text x="116" y="487" fill="#fff" font-size="36" font-weight="800">8 / 11</text><rect x="366" y="397" width="275" height="126" rx="22" fill="#1d1427" stroke="#ffffff" stroke-opacity=".08"/><text x="396" y="436" fill="#a896af" font-size="15">WEEKLY CONSISTENCY</text><text x="396" y="487" fill="url(#g)" font-size="36" font-weight="800">86%</text></g>
</svg>
